<svg version="1.1" id="Instagram" xmlns="http://www.w3.org/2000/svg" x="0" y="0" viewBox="0 0 500 500" style="enable-background:new 0 0 500 500" xml:space="preserve"><style>.st2{fill:#fff}</style><radialGradient id="SVGID_1_" cx="62.625" cy="334.546" r="207.756" gradientTransform="matrix(3 0 0 -3 -2 1504)" gradientUnits="userSpaceOnUse"><stop offset="0" style="stop-color:#fd5"/><stop offset=".328" style="stop-color:#ff543f"/><stop offset=".348" style="stop-color:#fc5245"/><stop offset=".504" style="stop-color:#e64771"/><stop offset=".643" style="stop-color:#d53e91"/><stop offset=".761" style="stop-color:#cc39a4"/><stop offset=".841" style="stop-color:#c837ab"/></radialGradient><path d="M0 500V0h500v500H0z" style="fill:url(#SVGID_1_)"/><radialGradient id="SVGID_2_" cx="27.486" cy="507.398" r="137.95" gradientTransform="matrix(3 0 0 -1.9989 -2 1007.996)" gradientUnits="userSpaceOnUse"><stop offset="0" style="stop-color:#4168c9"/><stop offset=".999" style="stop-color:#4168c9;stop-opacity:0"/></radialGradient><path d="M0 500V0h500v500H0z" style="fill:url(#SVGID_2_)"/><path class="st2" d="M250 341.54c-50.46 0-91.54-41.06-91.54-91.54s41.07-91.54 91.54-91.54 91.54 41.06 91.54 91.54-41.08 91.54-91.54 91.54zm0-156.92c-36.05 0-65.38 29.33-65.38 65.38s29.33 65.38 65.38 65.38 65.38-29.33 65.38-65.38-29.33-65.38-65.38-65.38z"/><circle class="st2" cx="348.08" cy="151.92" r="19.62"/><path class="st2" d="M328.46 420H171.54C121.07 420 80 378.94 80 328.46V171.54C80 121.06 121.07 80 171.54 80h156.92c50.46 0 91.54 41.06 91.54 91.54v156.92c0 50.48-41.07 91.54-91.54 91.54zM171.54 106.15c-36.05 0-65.38 29.33-65.38 65.38v156.92c0 36.05 29.33 65.38 65.38 65.38h156.92c36.05 0 65.38-29.33 65.38-65.38V171.54c0-36.05-29.33-65.38-65.38-65.38H171.54z"/></svg>