<svg xmlns="http://www.w3.org/2000/svg" viewBox="0 0 500 500" style="enable-background:new 0 0 500 500" xml:space="preserve"><path style="fill:#ff9800" d="M0 0h500v500H0z"/><path d="M285.21 327.71c18.21-3.64 35.21-10.93 49.79-20.64 12.14-7.29 15.79-23.07 8.5-35.21s-23.07-15.79-35.21-8.5c-35.21 21.86-81.36 21.86-116.57 0-12.14-7.29-27.93-3.64-35.21 8.5s-3.64 27.93 8.5 35.21c15.79 9.71 32.79 17 49.79 20.64l-48.57 48.57c-9.71 9.71-9.71 25.5 0 36.43 4.86 4.86 10.93 7.29 18.21 7.29 6.07 0 13.36-2.43 18.21-7.29L250 365.36l47.36 47.36c9.71 9.71 25.5 9.71 36.43 0 9.71-9.71 9.71-25.5 0-36.43l-48.58-48.58zM250 80c-47.36 0-85 37.64-85 85s37.64 85 85 85 85-37.64 85-85-37.64-85-85-85zm0 121.43c-20.64 0-36.43-15.79-36.43-36.43s15.79-36.43 36.43-36.43 36.43 15.79 36.43 36.43-15.79 36.43-36.43 36.43z" style="fill:#fff"/></svg>