<svg xmlns="http://www.w3.org/2000/svg" viewBox="0 0 500 500" style="enable-background:new 0 0 500 500" xml:space="preserve"><path style="fill:#5dbee1" d="M0 0h500v500H0z"/><path d="M413.58 99.59c-5.8-4.92-14.91-5.62-24.33-1.84h-.02c-9.91 3.97-280.4 120-291.41 124.74-2 .7-19.49 7.22-17.69 21.76 1.61 13.11 15.67 18.54 17.38 19.16l68.77 23.55c4.56 15.19 21.38 71.22 25.1 83.19 2.32 7.46 6.1 17.27 12.73 19.29 5.82 2.24 11.6.19 15.34-2.75l42.04-39 67.87 52.93 1.62.97c4.61 2.04 9.02 3.06 13.24 3.06 3.26 0 6.38-.61 9.36-1.83 10.17-4.18 14.24-13.87 14.66-14.96l50.7-263.51c3.1-14.08-1.2-21.24-5.36-24.76zM226.93 296.38l-23.2 61.86-23.2-77.33 177.86-131.46-131.46 146.93z" style="fill:#fff"/></svg>