<svg xmlns="http://www.w3.org/2000/svg" viewBox="0 0 500 500" style="enable-background:new 0 0 500 500" xml:space="preserve"><linearGradient id="a" gradientUnits="userSpaceOnUse" x1="250" y1="500" x2="250" y2="0"><stop offset="0" style="stop-color:#5180b8"/><stop offset="1" style="stop-color:#5180b8"/></linearGradient><path style="fill:url(#a)" d="M0 0h500v500H0z"/><path d="M418.17 332.73c-13.89-24.99-49.65-55.02-64.42-68.08-4.04-3.58-4.47-9.77-.8-13.72 28.18-30.28 50.72-65.08 58.48-86.1 3.42-9.29-3.66-19.1-13.65-19.1h-29c-9.56 0-15.15 3.43-17.82 8.89-23.42 47.99-43.51 68.76-57.58 80.9-7.87 6.8-20.15 1.17-20.15-9.18v-63.98c0-8.86-7.25-16.03-16.19-16.03l-52.98-.6c-6.67 0-10.48 7.55-6.48 12.84l8.75 12.56c3.29 4.35 5.07 9.64 5.07 15.08l-.05 56.55c0 9.84-11.92 14.64-19 7.75-23.95-23.32-44.72-70.94-52.2-93.72-2.16-6.59-8.34-11.04-15.34-11.06l-28.57-.07c-10.72 0-18.55 10.16-15.64 20.39 26.1 91.62 79.66 178.78 175.11 188.23 9.4.93 17.52-6.65 17.52-16.02v-29.72c0-8.52 6.68-15.85 15.28-16.06.3-.01.6-.01.9-.01 25.24 0 53.52 36.74 63.41 53.93 2.84 4.95 8.16 7.96 13.91 7.96h38.43c11.21-.01 18.41-11.9 13.01-21.63z" style="fill:#fff"/></svg>