<svg version="1.1" id="Youtube" xmlns="http://www.w3.org/2000/svg" x="0" y="0" viewBox="0 0 500 500" style="enable-background:new 0 0 500 500" xml:space="preserve"><style>.st0{fill:#fff}</style><path class="st0" d="M0 0h500v500H0z"/><path d="M412.37 333.94c-3.39 17.81-17.81 31.37-35.61 33.92-27.98 4.24-74.61 9.33-127.18 9.33-51.72 0-98.35-5.09-127.18-9.33-17.81-2.54-32.22-16.11-35.61-33.92C83.39 314.44 80 285.61 80 250s3.39-64.44 6.78-83.94c3.39-17.81 17.81-31.37 35.61-33.92 27.98-4.24 74.61-9.33 127.18-9.33s98.35 5.09 127.18 9.33c17.81 2.54 32.22 16.11 35.61 33.92 3.39 19.5 7.63 48.33 7.63 83.94-.84 35.61-4.23 64.44-7.62 83.94z" style="fill:#ff3d00"/><path class="st0" d="M215.66 309.35v-118.7L317.41 250l-101.75 59.35z"/></svg>