<svg xmlns="http://www.w3.org/2000/svg" viewBox="0 0 500 500" style="enable-background:new 0 0 500 500" xml:space="preserve"><path style="fill:#3dba2e" d="M0 0h500v500H0z"/><path d="M178.33 233.93c19.2 37.73 50.07 68.6 87.87 87.8l29.33-29.4c3.67-3.67 8.93-4.73 13.53-3.27 14.93 4.93 31 7.6 47.6 7.6 7.4 0 13.33 5.93 13.33 13.33v46.67c0 7.4-5.93 13.33-13.33 13.33C231.47 370 130 268.53 130 143.33c0-7.4 6-13.33 13.33-13.33H190c7.4 0 13.33 5.93 13.33 13.33 0 16.6 2.67 32.67 7.6 47.6 1.47 4.6.4 9.87-3.27 13.53l-29.33 29.47z" style="fill:#fff"/></svg>