<svg xmlns="http://www.w3.org/2000/svg" viewBox="0 0 500 500" style="enable-background:new 0 0 500 500" xml:space="preserve"><linearGradient id="a" gradientUnits="userSpaceOnUse" x1="250" y1="500" x2="250" y2="0"><stop offset="0" style="stop-color:#353535"/><stop offset="1" style="stop-color:#4c4c4c"/></linearGradient><path style="fill:url(#a)" d="M0 0h500v500H0z"/><path d="M322.55 202.75c21.95 15.69 48.85 24.91 77.9 24.91v-55.87c-5.5 0-10.98-.57-16.35-1.71v43.98c-29.04 0-55.93-9.24-77.9-24.91v114c0 57.03-46.26 103.26-103.32 103.26-21.28 0-41.08-6.44-57.52-17.47C164.12 408.1 190.28 420 219.23 420c57.06 0 103.32-46.23 103.32-103.26V202.75zm20.18-56.36c-11.21-12.24-18.58-28.08-20.18-45.59v-7.19h-15.5c3.89 22.25 17.21 41.26 35.68 52.78zM181.45 345.18a47.052 47.052 0 0 1-9.64-28.6c0-26.09 21.16-47.24 47.26-47.24 4.86 0 9.7.74 14.33 2.21v-57.11c-5.42-.74-10.88-1.06-16.35-.95v44.45a47.15 47.15 0 0 0-14.35-2.21c-26.1 0-47.26 21.15-47.26 47.24.02 18.46 10.59 34.44 26.01 42.21z" style="fill-rule:evenodd;clip-rule:evenodd;fill:#ec407a"/><path d="M306.19 189.14c21.95 15.69 48.85 24.91 77.9 24.91v-43.98c-16.21-3.45-30.56-11.92-41.36-23.69-18.47-11.52-31.77-30.52-35.67-52.77h-40.72v223.13c-.1 26.01-21.22 47.07-47.26 47.07-15.35 0-28.99-7.31-37.62-18.64-15.42-7.77-25.99-23.75-25.99-42.19 0-26.09 21.16-47.24 47.26-47.24 5 0 9.82.78 14.35 2.21v-44.44c-56.05 1.16-101.13 46.93-101.13 103.23 0 28.11 11.23 53.59 29.45 72.2 16.44 11.03 36.23 17.47 57.52 17.47 57.06 0 103.32-46.23 103.32-103.26l-.05-114.01z" style="fill-rule:evenodd;clip-rule:evenodd;fill:#fff"/><path d="M384.09 170.08v-11.9a77.832 77.832 0 0 1-41.36-11.81 77.988 77.988 0 0 0 41.36 23.71zm-77.05-76.47c-.38-2.13-.65-4.26-.85-6.42V80h-56.22v223.14c-.08 26.01-21.22 47.07-47.26 47.07-7.65 0-14.86-1.81-21.26-5.04 8.64 11.32 22.27 18.64 37.62 18.64 26.05 0 47.17-21.06 47.26-47.07V93.61h40.71zm-89.98 119.91v-12.66c-4.69-.64-9.43-.96-14.18-.96-57.07 0-103.32 46.23-103.32 103.26 0 35.76 18.18 67.27 45.8 85.79-18.22-18.61-29.45-44.09-29.45-72.2 0-56.3 45.09-102.08 101.15-103.23z" style="fill-rule:evenodd;clip-rule:evenodd;fill:#81d4fa"/></svg>