<svg xmlns="http://www.w3.org/2000/svg" viewBox="0 0 500 500" style="enable-background:new 0 0 500 500" xml:space="preserve"><path style="fill:#03a9f4" d="M0 0h500v500H0z"/><path d="M420 145.45c-12.49 5.53-25.93 9.23-40.11 10.97 14.41-8.56 25.5-22.2 30.7-38.32-13.49 7.9-28.43 13.71-44.32 16.77-12.69-13.46-30.8-21.81-50.85-21.81-38.53 0-69.76 30.96-69.76 69.13 0 5.4.63 10.66 1.82 15.77-57.97-2.91-109.38-30.47-143.77-72.28-6.04 10.22-9.44 22.18-9.44 34.81 0 24 12.29 45.12 31.02 57.57-11.44-.35-22.2-3.53-31.63-8.63v.81c0 33.53 24.05 61.46 55.93 67.81a69.2 69.2 0 0 1-18.33 2.48c-4.5 0-8.9-.51-13.15-1.27 8.88 27.41 34.63 47.44 65.14 48.03-23.87 18.51-53.94 29.6-86.64 29.6-5.65 0-11.17-.32-16.63-.98 30.89 19.56 67.57 31.02 106.94 31.02 128.29 0 198.48-105.35 198.48-196.75 0-2.99-.09-5.98-.24-8.92 13.71-9.67 25.52-21.87 34.84-35.81" style="fill:#fff"/></svg>