<svg xmlns="http://www.w3.org/2000/svg" viewBox="0 0 500 500" style="enable-background:new 0 0 500 500" xml:space="preserve"><linearGradient id="a" gradientUnits="userSpaceOnUse" x1="250" y1="500" x2="250" y2="0"><stop offset="0" style="stop-color:#715cf7"/><stop offset="1" style="stop-color:#715cf7"/></linearGradient><path style="fill:url(#a)" d="M0 0h500v500H0z"/><path d="M245.35 63.82c-11.04.06-22.1.73-33.27 2.09-21.34 2.62-42.5 6.99-62.8 16.32-32.29 14.83-55.18 40-61.82 76.59-2.81 15.43-5.09 31.08-6.39 46.83-2.5 30.58-.95 61.25 7.72 91.39 6.83 23.75 19.42 45.09 41.46 58.94 9.33 5.85 21.63 8.7 28.05 11.67 1.8.85 2.25 1.36 2.34 1.49.09.09.35.32.32 2.21-.22 19.35 0 56.79 0 56.79l.03 8.06h14.45l2.34-2.28s36.71-35.32 49.99-49.87c2.4-2.59 3.64-4.05 3.89-4.21.22-.16-.16-.25 2.31-.32 17.42-.35 34.82-1.01 52.21-1.96 22.93-1.26 46.29-3.45 68.78-12.84 19.57-8.19 35.92-21.57 45.82-41.61 10.12-20.55 15.53-42.34 17.55-64.89 3.35-37.53 2.18-75.13-8.19-112.19-6.1-21.72-18.37-40.1-37.19-53.06-22.51-15.49-47.91-21.31-72.76-25.01-14.51-2.15-29.12-3.57-43.8-4.02-3.67-.09-7.34-.16-11.04-.12zm10.6 16.31c13.95.38 27.89 1.74 41.87 3.83 23.97 3.57 46.58 9.01 65.96 22.36 15.72 10.81 25.52 25.42 30.77 44.05 9.68 34.66 10.91 70.17 7.65 106.44-1.87 20.9-6.83 40.6-15.97 59.16-8.06 16.38-20.65 26.78-37.53 33.84-19.61 8.19-40.92 10.37-63.37 11.61-17.2.95-34.44 1.58-51.67 1.93-4.33.09-8.57 1.23-11.57 3.45-3 2.21-4.36 4.27-6.23 6.29-9.49 10.37-28.4 28.62-38.7 38.61-.06-12.08-.16-26.69 0-40.16.06-4.14-.89-8.38-3.26-11.73-2.37-3.35-5.63-5.38-8.76-6.83-9.14-4.24-21.09-7.46-26.28-10.72-18.12-11.38-28.4-28.46-34.5-49.71-8-27.8-9.52-56.41-7.15-85.54 1.26-15.12 3.45-30.26 6.2-45.28 5.76-31.65 23.84-51.58 52.62-64.79 18.18-8.35 37.6-12.46 58.06-14.96 13.94-1.72 27.88-2.26 41.86-1.85zm3.41 40.35c-6.67 0-13.15.76-19.45 2.15-4.33 1.01-7.08 5.34-6.1 9.71.98 4.36 5.34 7.08 9.71 6.1 5.09-1.17 10.4-1.77 15.84-1.77 39.53 0 71.4 31.87 71.4 71.37 0 5.47-.6 10.78-1.77 15.91-.98 4.33 1.74 8.7 6.1 9.68 4.36.98 8.7-1.77 9.68-6.13a87.642 87.642 0 0 0 2.18-19.45c0-48.26-39.3-87.57-87.59-87.57zM178.6 136.7c-1.33-.06-2.69.03-4.11.35-14.7 3.26-29.31 13.91-29.72 32.95.41 2.66.38 5.5 1.36 7.91 4.81 11.76 8.98 23.91 14.99 35.04 29.25 54.07 73.49 91.67 129.87 115.55 6.74 2.85 13.69 3.45 20.49.6 9.36-3.89 17.3-9.9 22.58-18.53 7.24-11.86 7.34-20.08-4.59-28.84-7.81-5.76-15.49-11.67-23.4-17.3-12.05-8.54-25.08-10.02-34.06 4.96-.47.76-1.17 1.39-1.77 2.02-4.62 4.9-10.28 6.1-16.29 3.64-22.8-9.39-40.41-24.54-51.04-47.08-6.26-13.25-4.55-19.89 7.15-28.71 1.17-.85 2.28-1.77 3.35-2.75 5.12-4.68 6.48-10.25 3.45-16.54-6.86-14.36-16-27.16-27.57-38.2-3.13-2.98-6.71-4.85-10.69-5.07zm80.64 8.07c-3.57 0-7.11.28-10.59.89a8.106 8.106 0 0 0-6.51 5.09 8.17 8.17 0 0 0 1.36 8.19 8.132 8.132 0 0 0 7.87 2.66c2.53-.41 5.19-.63 7.87-.63 26.31 0 47.43 21.12 47.43 47.43 0 2.69-.22 5.34-.63 7.87-.63 2.91.41 5.94 2.66 7.87a8.193 8.193 0 0 0 8.19 1.36 8.12 8.12 0 0 0 5.09-6.51c.6-3.48.89-7.02.89-10.59-.01-35.05-28.6-63.63-63.63-63.63zm-1.14 24.28a8.133 8.133 0 0 0-7.11 4.02 8.197 8.197 0 0 0 0 8.16 8.157 8.157 0 0 0 7.11 4.02c13.5 0 24.29 10.78 24.29 24.29a8.133 8.133 0 0 0 4.02 7.11 8.197 8.197 0 0 0 8.16 0 8.157 8.157 0 0 0 4.02-7.11c-.02-22.27-18.23-40.49-40.49-40.49z" style="fill:#fff"/></svg>