<svg xmlns="http://www.w3.org/2000/svg" viewBox="0 0 500 500" style="enable-background:new 0 0 500 500" xml:space="preserve"><linearGradient id="a" gradientUnits="userSpaceOnUse" x1="250" y1="0" x2="250" y2="500" gradientTransform="matrix(1 0 0 -1 0 500)"><stop offset="0" style="stop-color:#09b928"/><stop offset="1" style="stop-color:#5ffc77"/></linearGradient><path d="M0 0h500v500H0V0z" style="fill:url(#a)"/><path d="M250 80c-93.8 0-170 76.2-170 170 0 30.15 8.27 58.29 22.06 82.85l-21.78 77.77c-1.1 3.93 1.2 8.01 5.13 9.11 1.23.34 2.53.36 3.76.06l81.09-20.1C194.08 412.41 221.12 420 250 420c93.8 0 170-76.2 170-170S343.8 80 250 80zm0 14.78c85.81 0 155.22 69.41 155.22 155.22S335.81 405.22 250 405.22c-27.51 0-53.28-7.17-75.67-19.71a7.367 7.367 0 0 0-5.38-.72l-71.01 17.6 19.04-67.94a7.4 7.4 0 0 0-.74-5.76c-13.61-23.08-21.45-49.94-21.45-78.69-.01-85.81 69.4-155.22 155.21-155.22zm101.65 211.7c.04.83.06 1.73-.05 3.09-.33 3.78-1.34 9.02-3.36 14.62-.99 2.74-6.15 8.4-12.67 12.52-6.52 4.11-14.44 7.03-17.37 7.46-8.82 1.3-19.3 1.77-30.8-1.83-7.98-2.51-17.93-5.74-30.8-11.23-26.13-11.14-48.32-30.1-64.19-46.8-6.65-7-12.92-14.35-18.81-22-4.51-5.87-6.48-8.93-8.12-11.08l-.01-.01c-2.92-3.86-20.77-28.69-20.77-51.06 0-23.67 11-32.97 16.95-39.37 3.15-3.36 6.56-3.86 7.95-3.86 3.63 0 7.21.04 10.2.18 3.08.15 2.89.17 2.29-.11-.6-.28.22-.37 1.96 3.78 2.29 5.44 6.24 14.96 9.78 23.44 1.77 4.24 3.43 8.23 4.74 11.35 1.32 3.12 2.04 4.86 2.87 6.52v.01l.01.01c.81 1.6.74.57.46 1.15-1.99 3.95-2.25 4.92-4.27 7.22-3.06 3.53-6.18 7.45-7.83 9.08-1.44 1.41-4.05 3.63-5.68 7.96s-.87 10.29 1.74 14.72c3.49 5.91 14.96 24.59 32.79 40.29 11.23 9.91 21.7 16.45 30.05 20.86 8.35 4.41 15.17 6.99 16.69 7.74 3.62 1.8 7.58 3.18 12.17 2.62 4.6-.55 8.56-3.34 11.08-6.19l.01-.01c3.36-3.81 13.33-15.2 18.12-22.22.2.08.14.01 1.73.59v.01h.01c.73.25 9.83 4.33 17.94 8.2s16.35 7.88 19.02 9.21" style="fill:#fff"/></svg>